<svg width="34" height="34" viewBox="0 0 34 34" fill="none" xmlns="http://www.w3.org/2000/svg">
<path d="M17.0002 2.8335C14.1983 2.8335 11.4593 3.66436 9.12959 5.22101C6.79989 6.77766 4.98412 8.99019 3.91188 11.5788C2.83963 14.1674 2.55909 17.0159 3.10571 19.7639C3.65234 22.512 5.00158 25.0363 6.98282 27.0175C8.96407 28.9988 11.4883 30.348 14.2364 30.8946C16.9845 31.4412 19.8329 31.1607 22.4215 30.0885C25.0101 29.0162 27.2227 27.2004 28.7793 24.8707C30.336 22.541 31.1668 19.8021 31.1668 17.0002C31.1668 15.1398 30.8004 13.2976 30.0885 11.5788C29.3765 9.86003 28.333 8.29831 27.0175 6.98282C25.702 5.66732 24.1403 4.62381 22.4215 3.91187C20.7027 3.19993 18.8606 2.8335 17.0002 2.8335ZM17.0002 28.3335C14.7586 28.3335 12.5675 27.6688 10.7037 26.4235C8.83995 25.1782 7.38733 23.4081 6.52954 21.3372C5.67174 19.2663 5.4473 16.9876 5.8846 14.7891C6.3219 12.5907 7.4013 10.5713 8.98629 8.98629C10.5713 7.40129 12.5907 6.3219 14.7891 5.8846C16.9876 5.4473 19.2664 5.67174 21.3372 6.52953C23.4081 7.38732 25.1782 8.83994 26.4235 10.7037C27.6688 12.5675 28.3335 14.7586 28.3335 17.0002C28.3335 20.0059 27.1395 22.8886 25.014 25.014C22.8886 27.1395 20.006 28.3335 17.0002 28.3335Z" fill="#F26969"/>
<path d="M20.8391 13.1607C20.7074 13.028 20.5507 12.9226 20.3781 12.8507C20.2054 12.7787 20.0203 12.7417 19.8332 12.7417C19.6462 12.7417 19.4611 12.7787 19.2884 12.8507C19.1158 12.9226 18.9591 13.028 18.8274 13.1607L16.9999 15.0024L15.1724 13.1607C14.9057 12.894 14.5438 12.7441 14.1666 12.7441C13.7893 12.7441 13.4275 12.894 13.1607 13.1607C12.894 13.4275 12.7441 13.7893 12.7441 14.1666C12.7441 14.5438 12.894 14.9057 13.1607 15.1724L15.0024 16.9999L13.1607 18.8274C13.028 18.9591 12.9226 19.1158 12.8507 19.2884C12.7787 19.4611 12.7417 19.6462 12.7417 19.8332C12.7417 20.0203 12.7787 20.2054 12.8507 20.3781C12.9226 20.5507 13.028 20.7074 13.1607 20.8391C13.2924 20.9719 13.4491 21.0773 13.6218 21.1492C13.7944 21.2211 13.9796 21.2581 14.1666 21.2581C14.3536 21.2581 14.5388 21.2211 14.7114 21.1492C14.884 21.0773 15.0407 20.9719 15.1724 20.8391L16.9999 18.9974L18.8274 20.8391C18.9591 20.9719 19.1158 21.0773 19.2884 21.1492C19.4611 21.2211 19.6462 21.2581 19.8332 21.2581C20.0203 21.2581 20.2054 21.2211 20.3781 21.1492C20.5507 21.0773 20.7074 20.9719 20.8391 20.8391C20.9719 20.7074 21.0773 20.5507 21.1492 20.3781C21.2211 20.2054 21.2581 20.0203 21.2581 19.8332C21.2581 19.6462 21.2211 19.4611 21.1492 19.2884C21.0773 19.1158 20.9719 18.9591 20.8391 18.8274L18.9974 16.9999L20.8391 15.1724C20.9719 15.0407 21.0773 14.884 21.1492 14.7114C21.2211 14.5388 21.2581 14.3536 21.2581 14.1666C21.2581 13.9796 21.2211 13.7944 21.1492 13.6218C21.0773 13.4491 20.9719 13.2924 20.8391 13.1607Z" fill="#F26969"/>
</svg>
